<svg width="800" height="800" viewBox="0 0 800 800" fill="none" xmlns="http://www.w3.org/2000/svg">
<circle cx="400" cy="400" r="400" fill="black"/>
<path d="M399.582 576.457C371.079 576.347 346.552 569.331 326.003 555.411C305.564 541.491 289.821 521.328 278.773 494.923C267.835 468.519 262.422 436.756 262.532 399.634C262.532 362.624 268.001 331.082 278.938 305.009C289.986 278.935 305.73 259.104 326.169 245.515C346.718 231.816 371.189 224.966 399.582 224.966C427.976 224.966 452.392 231.816 472.831 245.515C493.38 259.215 509.178 279.101 520.226 305.174C531.274 331.137 536.743 362.624 536.633 399.634C536.633 436.866 531.109 468.684 520.061 495.089C509.123 521.494 493.435 541.656 472.996 555.577C452.557 569.497 428.086 576.457 399.582 576.457ZM399.582 516.964C419.027 516.964 434.549 507.187 446.15 487.632C457.75 468.077 463.495 438.744 463.384 399.634C463.384 373.893 460.733 352.46 455.43 335.335C450.237 318.211 442.835 305.34 433.223 296.723C423.722 288.105 412.509 283.796 399.582 283.796C380.248 283.796 364.781 293.463 353.181 312.797C341.58 332.131 335.725 361.077 335.615 399.634C335.615 425.708 338.211 447.472 343.403 464.928C348.706 482.273 356.164 495.31 365.776 504.038C375.387 512.655 386.656 516.964 399.582 516.964Z" fill="white"/>
</svg>
